<svg xmlns="http://www.w3.org/2000/svg" width="860" height="125" viewBox="0 0 860 125">
<rect width="100%" height="100%" fill="#0d1117"/>
<rect x="10" y="10" width="13" height="13" rx="3" fill="#161b22"><title>0 contributions</title></rect>
<rect x="10" y="27" width="13" height="13" rx="3" fill="#161b22"><title>0 contributions</title></rect>
<rect x="10" y="44" width="13" height="13" rx="3" fill="#161b22"><title>0 contributions</title></rect>
<rect x="10" y="61" width="13" height="13" rx="3" fill="#161b22"><title>0 contributions</title></rect>
<rect x="10" y="78" width="13" height="13" rx="3" fill="#161b22"><title>0 contributions</title></rect>
<rect x="10" y="95" width="13" height="13" rx="3" fill="#161b22"><title>0 contributions</title></rect>
<rect x="10" y="112" width="13" height="13" rx="3" fill="#161b22"><title>0 contributions</title></rect>
<rect x="27" y="10" width="13" height="13" rx="3" fill="#161b22"><title>0 contributions</title></rect>
<rect x="27" y="27" width="13" height="13" rx="3" fill="#161b22"><title>0 contributions</title></rect>
<rect x="27" y="44" width="13" height="13" rx="3" fill="#161b22"><title>0 contributions</title></rect>
<rect x="27" y="61" width="13" height="13" rx="3" fill="#161b22"><title>0 contributions</title></rect>
<rect x="27" y="78" width="13" height="13" rx="3" fill="#161b22"><title>0 contributions</title></rect>
<rect x="27" y="95" width="13" height="13" rx="3" fill="#161b22"><title>0 contributions</title></rect>
<rect x="27" y="112" width="13" height="13" rx="3" fill="#161b22"><title>0 contributions</title></rect>
<rect x="44" y="10" width="13" height="13" rx="3" fill="#161b22"><title>0 contributions</title></rect>
<rect x="44" y="27" width="13" height="13" rx="3" fill="#161b22"><title>0 contributions</title></rect>
<rect x="44" y="44" width="13" height="13" rx="3" fill="#161b22"><title>0 contributions</title></rect>
<rect x="44" y="61" width="13" height="13" rx="3" fill="#161b22"><title>0 contributions</title></rect>
<rect x="44" y="78" width="13" height="13" rx="3" fill="#161b22"><title>0 contributions</title></rect>
<rect x="44" y="95" width="13" height="13" rx="3" fill="#161b22"><title>0 contributions</title></rect>
<rect x="44" y="112" width="13" height="13" rx="3" fill="#161b22"><title>0 contributions</title></rect>
<rect x="61" y="10" width="13" height="13" rx="3" fill="#161b22"><title>0 contributions</title></rect>
<rect x="61" y="27" width="13" height="13" rx="3" fill="#161b22"><title>0 contributions</title></rect>
<rect x="61" y="44" width="13" height="13" rx="3" fill="#161b22"><title>0 contributions</title></rect>
<rect x="61" y="61" width="13" height="13" rx="3" fill="#161b22"><title>0 contributions</title></rect>
<rect x="61" y="78" width="13" height="13" rx="3" fill="#161b22"><title>0 contributions</title></rect>
<rect x="61" y="95" width="13" height="13" rx="3" fill="#161b22"><title>0 contributions</title></rect>
<rect x="61" y="112" width="13" height="13" rx="3" fill="#161b22"><title>0 contributions</title></rect>
<rect x="78" y="10" width="13" height="13" rx="3" fill="#161b22"><title>0 contributions</title></rect>
<rect x="78" y="27" width="13" height="13" rx="3" fill="#161b22"><title>0 contributions</title></rect>
<rect x="78" y="44" width="13" height="13" rx="3" fill="#161b22"><title>0 contributions</title></rect>
<rect x="78" y="61" width="13" height="13" rx="3" fill="#161b22"><title>0 contributions</title></rect>
<rect x="78" y="78" width="13" height="13" rx="3" fill="#161b22"><title>0 contributions</title></rect>
<rect x="78" y="95" width="13" height="13" rx="3" fill="#161b22"><title>0 contributions</title></rect>
<rect x="78" y="112" width="13" height="13" rx="3" fill="#161b22"><title>0 contributions</title></rect>
<rect x="95" y="10" width="13" height="13" rx="3" fill="#161b22"><title>0 contributions</title></rect>
<rect x="95" y="27" width="13" height="13" rx="3" fill="#161b22"><title>0 contributions</title></rect>
<rect x="95" y="44" width="13" height="13" rx="3" fill="#161b22"><title>0 contributions</title></rect>
<rect x="95" y="61" width="13" height="13" rx="3" fill="#161b22"><title>0 contributions</title></rect>
<rect x="95" y="78" width="13" height="13" rx="3" fill="#161b22"><title>0 contributions</title></rect>
<rect x="95" y="95" width="13" height="13" rx="3" fill="#161b22"><title>0 contributions</title></rect>
<rect x="95" y="112" width="13" height="13" rx="3" fill="#161b22"><title>0 contributions</title></rect>
<rect x="112" y="10" width="13" height="13" rx="3" fill="#161b22"><title>0 contributions</title></rect>
<rect x="112" y="27" width="13" height="13" rx="3" fill="#161b22"><title>0 contributions</title></rect>
<rect x="112" y="44" width="13" height="13" rx="3" fill="#161b22"><title>0 contributions</title></rect>
<rect x="112" y="61" width="13" height="13" rx="3" fill="#161b22"><title>0 contributions</title></rect>
<rect x="112" y="78" width="13" height="13" rx="3" fill="#161b22"><title>0 contributions</title></rect>
<rect x="112" y="95" width="13" height="13" rx="3" fill="#161b22"><title>0 contributions</title></rect>
<rect x="112" y="112" width="13" height="13" rx="3" fill="#161b22"><title>0 contributions</title></rect>
<rect x="129" y="10" width="13" height="13" rx="3" fill="#161b22"><title>0 contributions</title></rect>
<rect x="129" y="27" width="13" height="13" rx="3" fill="#161b22"><title>0 contributions</title></rect>
<rect x="129" y="44" width="13" height="13" rx="3" fill="#161b22"><title>0 contributions</title></rect>
<rect x="129" y="61" width="13" height="13" rx="3" fill="#69f0a0"><title>4 contributions</title></rect>
<rect x="129" y="78" width="13" height="13" rx="3" fill="#161b22"><title>0 contributions</title></rect>
<rect x="129" y="95" width="13" height="13" rx="3" fill="#161b22"><title>0 contributions</title></rect>
<rect x="129" y="112" width="13" height="13" rx="3" fill="#161b22"><title>0 contributions</title></rect>
<rect x="146" y="10" width="13" height="13" rx="3" fill="#161b22"><title>0 contributions</title></rect>
<rect x="146" y="27" width="13" height="13" rx="3" fill="#161b22"><title>0 contributions</title></rect>
<rect x="146" y="44" width="13" height="13" rx="3" fill="#161b22"><title>0 contributions</title></rect>
<rect x="146" y="61" width="13" height="13" rx="3" fill="#161b22"><title>0 contributions</title></rect>
<rect x="146" y="78" width="13" height="13" rx="3" fill="#161b22"><title>0 contributions</title></rect>
<rect x="146" y="95" width="13" height="13" rx="3" fill="#161b22"><title>0 contributions</title></rect>
<rect x="146" y="112" width="13" height="13" rx="3" fill="#161b22"><title>0 contributions</title></rect>
<rect x="163" y="10" width="13" height="13" rx="3" fill="#161b22"><title>0 contributions</title></rect>
<rect x="163" y="27" width="13" height="13" rx="3" fill="#161b22"><title>0 contributions</title></rect>
<rect x="163" y="44" width="13" height="13" rx="3" fill="#161b22"><title>0 contributions</title></rect>
<rect x="163" y="61" width="13" height="13" rx="3" fill="#161b22"><title>0 contributions</title></rect>
<rect x="163" y="78" width="13" height="13" rx="3" fill="#161b22"><title>0 contributions</title></rect>
<rect x="163" y="95" width="13" height="13" rx="3" fill="#161b22"><title>0 contributions</title></rect>
<rect x="163" y="112" width="13" height="13" rx="3" fill="#161b22"><title>0 contributions</title></rect>
<rect x="180" y="10" width="13" height="13" rx="3" fill="#161b22"><title>0 contributions</title></rect>
<rect x="180" y="27" width="13" height="13" rx="3" fill="#161b22"><title>0 contributions</title></rect>
<rect x="180" y="44" width="13" height="13" rx="3" fill="#161b22"><title>0 contributions</title></rect>
<rect x="180" y="61" width="13" height="13" rx="3" fill="#161b22"><title>0 contributions</title></rect>
<rect x="180" y="78" width="13" height="13" rx="3" fill="#161b22"><title>0 contributions</title></rect>
<rect x="180" y="95" width="13" height="13" rx="3" fill="#161b22"><title>0 contributions</title></rect>
<rect x="180" y="112" width="13" height="13" rx="3" fill="#161b22"><title>0 contributions</title></rect>
<rect x="197" y="10" width="13" height="13" rx="3" fill="#161b22"><title>0 contributions</title></rect>
<rect x="197" y="27" width="13" height="13" rx="3" fill="#161b22"><title>0 contributions</title></rect>
<rect x="197" y="44" width="13" height="13" rx="3" fill="#161b22"><title>0 contributions</title></rect>
<rect x="197" y="61" width="13" height="13" rx="3" fill="#161b22"><title>0 contributions</title></rect>
<rect x="197" y="78" width="13" height="13" rx="3" fill="#161b22"><title>0 contributions</title></rect>
<rect x="197" y="95" width="13" height="13" rx="3" fill="#161b22"><title>0 contributions</title></rect>
<rect x="197" y="112" width="13" height="13" rx="3" fill="#161b22"><title>0 contributions</title></rect>
<rect x="214" y="10" width="13" height="13" rx="3" fill="#161b22"><title>0 contributions</title></rect>
<rect x="214" y="27" width="13" height="13" rx="3" fill="#161b22"><title>0 contributions</title></rect>
<rect x="214" y="44" width="13" height="13" rx="3" fill="#161b22"><title>0 contributions</title></rect>
<rect x="214" y="61" width="13" height="13" rx="3" fill="#161b22"><title>0 contributions</title></rect>
<rect x="214" y="78" width="13" height="13" rx="3" fill="#161b22"><title>0 contributions</title></rect>
<rect x="214" y="95" width="13" height="13" rx="3" fill="#161b22"><title>0 contributions</title></rect>
<rect x="214" y="112" width="13" height="13" rx="3" fill="#161b22"><title>0 contributions</title></rect>
<rect x="231" y="10" width="13" height="13" rx="3" fill="#161b22"><title>0 contributions</title></rect>
<rect x="231" y="27" width="13" height="13" rx="3" fill="#161b22"><title>0 contributions</title></rect>
<rect x="231" y="44" width="13" height="13" rx="3" fill="#161b22"><title>0 contributions</title></rect>
<rect x="231" y="61" width="13" height="13" rx="3" fill="#161b22"><title>0 contributions</title></rect>
<rect x="231" y="78" width="13" height="13" rx="3" fill="#161b22"><title>0 contributions</title></rect>
<rect x="231" y="95" width="13" height="13" rx="3" fill="#161b22"><title>0 contributions</title></rect>
<rect x="231" y="112" width="13" height="13" rx="3" fill="#161b22"><title>0 contributions</title></rect>
<rect x="248" y="10" width="13" height="13" rx="3" fill="#161b22"><title>0 contributions</title></rect>
<rect x="248" y="27" width="13" height="13" rx="3" fill="#161b22"><title>0 contributions</title></rect>
<rect x="248" y="44" width="13" height="13" rx="3" fill="#161b22"><title>0 contributions</title></rect>
<rect x="248" y="61" width="13" height="13" rx="3" fill="#161b22"><title>0 contributions</title></rect>
<rect x="248" y="78" width="13" height="13" rx="3" fill="#161b22"><title>0 contributions</title></rect>
<rect x="248" y="95" width="13" height="13" rx="3" fill="#161b22"><title>0 contributions</title></rect>
<rect x="248" y="112" width="13" height="13" rx="3" fill="#161b22"><title>0 contributions</title></rect>
<rect x="265" y="10" width="13" height="13" rx="3" fill="#161b22"><title>0 contributions</title></rect>
<rect x="265" y="27" width="13" height="13" rx="3" fill="#161b22"><title>0 contributions</title></rect>
<rect x="265" y="44" width="13" height="13" rx="3" fill="#161b22"><title>0 contributions</title></rect>
<rect x="265" y="61" width="13" height="13" rx="3" fill="#161b22"><title>0 contributions</title></rect>
<rect x="265" y="78" width="13" height="13" rx="3" fill="#161b22"><title>0 contributions</title></rect>
<rect x="265" y="95" width="13" height="13" rx="3" fill="#161b22"><title>0 contributions</title></rect>
<rect x="265" y="112" width="13" height="13" rx="3" fill="#161b22"><title>0 contributions</title></rect>
<rect x="282" y="10" width="13" height="13" rx="3" fill="#161b22"><title>0 contributions</title></rect>
<rect x="282" y="27" width="13" height="13" rx="3" fill="#161b22"><title>0 contributions</title></rect>
<rect x="282" y="44" width="13" height="13" rx="3" fill="#161b22"><title>0 contributions</title></rect>
<rect x="282" y="61" width="13" height="13" rx="3" fill="#161b22"><title>0 contributions</title></rect>
<rect x="282" y="78" width="13" height="13" rx="3" fill="#161b22"><title>0 contributions</title></rect>
<rect x="282" y="95" width="13" height="13" rx="3" fill="#161b22"><title>0 contributions</title></rect>
<rect x="282" y="112" width="13" height="13" rx="3" fill="#161b22"><title>0 contributions</title></rect>
<rect x="299" y="10" width="13" height="13" rx="3" fill="#161b22"><title>0 contributions</title></rect>
<rect x="299" y="27" width="13" height="13" rx="3" fill="#161b22"><title>0 contributions</title></rect>
<rect x="299" y="44" width="13" height="13" rx="3" fill="#161b22"><title>0 contributions</title></rect>
<rect x="299" y="61" width="13" height="13" rx="3" fill="#161b22"><title>0 contributions</title></rect>
<rect x="299" y="78" width="13" height="13" rx="3" fill="#161b22"><title>0 contributions</title></rect>
<rect x="299" y="95" width="13" height="13" rx="3" fill="#161b22"><title>0 contributions</title></rect>
<rect x="299" y="112" width="13" height="13" rx="3" fill="#161b22"><title>0 contributions</title></rect>
<rect x="316" y="10" width="13" height="13" rx="3" fill="#161b22"><title>0 contributions</title></rect>
<rect x="316" y="27" width="13" height="13" rx="3" fill="#161b22"><title>0 contributions</title></rect>
<rect x="316" y="44" width="13" height="13" rx="3" fill="#161b22"><title>0 contributions</title></rect>
<rect x="316" y="61" width="13" height="13" rx="3" fill="#161b22"><title>0 contributions</title></rect>
<rect x="316" y="78" width="13" height="13" rx="3" fill="#161b22"><title>0 contributions</title></rect>
<rect x="316" y="95" width="13" height="13" rx="3" fill="#161b22"><title>0 contributions</title></rect>
<rect x="316" y="112" width="13" height="13" rx="3" fill="#161b22"><title>0 contributions</title></rect>
<rect x="333" y="10" width="13" height="13" rx="3" fill="#161b22"><title>0 contributions</title></rect>
<rect x="333" y="27" width="13" height="13" rx="3" fill="#161b22"><title>0 contributions</title></rect>
<rect x="333" y="44" width="13" height="13" rx="3" fill="#161b22"><title>0 contributions</title></rect>
<rect x="333" y="61" width="13" height="13" rx="3" fill="#161b22"><title>0 contributions</title></rect>
<rect x="333" y="78" width="13" height="13" rx="3" fill="#161b22"><title>0 contributions</title></rect>
<rect x="333" y="95" width="13" height="13" rx="3" fill="#161b22"><title>0 contributions</title></rect>
<rect x="333" y="112" width="13" height="13" rx="3" fill="#161b22"><title>0 contributions</title></rect>
<rect x="350" y="10" width="13" height="13" rx="3" fill="#161b22"><title>0 contributions</title></rect>
<rect x="350" y="27" width="13" height="13" rx="3" fill="#161b22"><title>0 contributions</title></rect>
<rect x="350" y="44" width="13" height="13" rx="3" fill="#161b22"><title>0 contributions</title></rect>
<rect x="350" y="61" width="13" height="13" rx="3" fill="#161b22"><title>0 contributions</title></rect>
<rect x="350" y="78" width="13" height="13" rx="3" fill="#161b22"><title>0 contributions</title></rect>
<rect x="350" y="95" width="13" height="13" rx="3" fill="#161b22"><title>0 contributions</title></rect>
<rect x="350" y="112" width="13" height="13" rx="3" fill="#161b22"><title>0 contributions</title></rect>
<rect x="367" y="10" width="13" height="13" rx="3" fill="#161b22"><title>0 contributions</title></rect>
<rect x="367" y="27" width="13" height="13" rx="3" fill="#161b22"><title>0 contributions</title></rect>
<rect x="367" y="44" width="13" height="13" rx="3" fill="#161b22"><title>0 contributions</title></rect>
<rect x="367" y="61" width="13" height="13" rx="3" fill="#161b22"><title>0 contributions</title></rect>
<rect x="367" y="78" width="13" height="13" rx="3" fill="#161b22"><title>0 contributions</title></rect>
<rect x="367" y="95" width="13" height="13" rx="3" fill="#161b22"><title>0 contributions</title></rect>
<rect x="367" y="112" width="13" height="13" rx="3" fill="#161b22"><title>0 contributions</title></rect>
<rect x="384" y="10" width="13" height="13" rx="3" fill="#161b22"><title>0 contributions</title></rect>
<rect x="384" y="27" width="13" height="13" rx="3" fill="#161b22"><title>0 contributions</title></rect>
<rect x="384" y="44" width="13" height="13" rx="3" fill="#161b22"><title>0 contributions</title></rect>
<rect x="384" y="61" width="13" height="13" rx="3" fill="#161b22"><title>0 contributions</title></rect>
<rect x="384" y="78" width="13" height="13" rx="3" fill="#161b22"><title>0 contributions</title></rect>
<rect x="384" y="95" width="13" height="13" rx="3" fill="#006d32"><title>2 contributions</title></rect>
<rect x="384" y="112" width="13" height="13" rx="3" fill="#161b22"><title>0 contributions</title></rect>
<rect x="401" y="10" width="13" height="13" rx="3" fill="#161b22"><title>0 contributions</title></rect>
<rect x="401" y="27" width="13" height="13" rx="3" fill="#161b22"><title>0 contributions</title></rect>
<rect x="401" y="44" width="13" height="13" rx="3" fill="#161b22"><title>0 contributions</title></rect>
<rect x="401" y="61" width="13" height="13" rx="3" fill="#161b22"><title>0 contributions</title></rect>
<rect x="401" y="78" width="13" height="13" rx="3" fill="#161b22"><title>0 contributions</title></rect>
<rect x="401" y="95" width="13" height="13" rx="3" fill="#161b22"><title>0 contributions</title></rect>
<rect x="401" y="112" width="13" height="13" rx="3" fill="#161b22"><title>0 contributions</title></rect>
<rect x="418" y="10" width="13" height="13" rx="3" fill="#161b22"><title>0 contributions</title></rect>
<rect x="418" y="27" width="13" height="13" rx="3" fill="#161b22"><title>0 contributions</title></rect>
<rect x="418" y="44" width="13" height="13" rx="3" fill="#161b22"><title>0 contributions</title></rect>
<rect x="418" y="61" width="13" height="13" rx="3" fill="#161b22"><title>0 contributions</title></rect>
<rect x="418" y="78" width="13" height="13" rx="3" fill="#161b22"><title>0 contributions</title></rect>
<rect x="418" y="95" width="13" height="13" rx="3" fill="#161b22"><title>0 contributions</title></rect>
<rect x="418" y="112" width="13" height="13" rx="3" fill="#161b22"><title>0 contributions</title></rect>
<rect x="435" y="10" width="13" height="13" rx="3" fill="#161b22"><title>0 contributions</title></rect>
<rect x="435" y="27" width="13" height="13" rx="3" fill="#161b22"><title>0 contributions</title></rect>
<rect x="435" y="44" width="13" height="13" rx="3" fill="#161b22"><title>0 contributions</title></rect>
<rect x="435" y="61" width="13" height="13" rx="3" fill="#161b22"><title>0 contributions</title></rect>
<rect x="435" y="78" width="13" height="13" rx="3" fill="#161b22"><title>0 contributions</title></rect>
<rect x="435" y="95" width="13" height="13" rx="3" fill="#161b22"><title>0 contributions</title></rect>
<rect x="435" y="112" width="13" height="13" rx="3" fill="#161b22"><title>0 contributions</title></rect>
<rect x="452" y="10" width="13" height="13" rx="3" fill="#161b22"><title>0 contributions</title></rect>
<rect x="452" y="27" width="13" height="13" rx="3" fill="#161b22"><title>0 contributions</title></rect>
<rect x="452" y="44" width="13" height="13" rx="3" fill="#161b22"><title>0 contributions</title></rect>
<rect x="452" y="61" width="13" height="13" rx="3" fill="#161b22"><title>0 contributions</title></rect>
<rect x="452" y="78" width="13" height="13" rx="3" fill="#161b22"><title>0 contributions</title></rect>
<rect x="452" y="95" width="13" height="13" rx="3" fill="#161b22"><title>0 contributions</title></rect>
<rect x="452" y="112" width="13" height="13" rx="3" fill="#161b22"><title>0 contributions</title></rect>
<rect x="469" y="10" width="13" height="13" rx="3" fill="#161b22"><title>0 contributions</title></rect>
<rect x="469" y="27" width="13" height="13" rx="3" fill="#161b22"><title>0 contributions</title></rect>
<rect x="469" y="44" width="13" height="13" rx="3" fill="#161b22"><title>0 contributions</title></rect>
<rect x="469" y="61" width="13" height="13" rx="3" fill="#161b22"><title>0 contributions</title></rect>
<rect x="469" y="78" width="13" height="13" rx="3" fill="#161b22"><title>0 contributions</title></rect>
<rect x="469" y="95" width="13" height="13" rx="3" fill="#161b22"><title>0 contributions</title></rect>
<rect x="469" y="112" width="13" height="13" rx="3" fill="#161b22"><title>0 contributions</title></rect>
<rect x="486" y="10" width="13" height="13" rx="3" fill="#161b22"><title>0 contributions</title></rect>
<rect x="486" y="27" width="13" height="13" rx="3" fill="#161b22"><title>0 contributions</title></rect>
<rect x="486" y="44" width="13" height="13" rx="3" fill="#161b22"><title>0 contributions</title></rect>
<rect x="486" y="61" width="13" height="13" rx="3" fill="#161b22"><title>0 contributions</title></rect>
<rect x="486" y="78" width="13" height="13" rx="3" fill="#161b22"><title>0 contributions</title></rect>
<rect x="486" y="95" width="13" height="13" rx="3" fill="#161b22"><title>0 contributions</title></rect>
<rect x="486" y="112" width="13" height="13" rx="3" fill="#161b22"><title>0 contributions</title></rect>
<rect x="503" y="10" width="13" height="13" rx="3" fill="#161b22"><title>0 contributions</title></rect>
<rect x="503" y="27" width="13" height="13" rx="3" fill="#161b22"><title>0 contributions</title></rect>
<rect x="503" y="44" width="13" height="13" rx="3" fill="#161b22"><title>0 contributions</title></rect>
<rect x="503" y="61" width="13" height="13" rx="3" fill="#161b22"><title>0 contributions</title></rect>
<rect x="503" y="78" width="13" height="13" rx="3" fill="#161b22"><title>0 contributions</title></rect>
<rect x="503" y="95" width="13" height="13" rx="3" fill="#69f0a0"><title>4 contributions</title></rect>
<rect x="503" y="112" width="13" height="13" rx="3" fill="#161b22"><title>0 contributions</title></rect>
<rect x="520" y="10" width="13" height="13" rx="3" fill="#161b22"><title>0 contributions</title></rect>
<rect x="520" y="27" width="13" height="13" rx="3" fill="#161b22"><title>0 contributions</title></rect>
<rect x="520" y="44" width="13" height="13" rx="3" fill="#161b22"><title>0 contributions</title></rect>
<rect x="520" y="61" width="13" height="13" rx="3" fill="#161b22"><title>0 contributions</title></rect>
<rect x="520" y="78" width="13" height="13" rx="3" fill="#161b22"><title>0 contributions</title></rect>
<rect x="520" y="95" width="13" height="13" rx="3" fill="#161b22"><title>0 contributions</title></rect>
<rect x="520" y="112" width="13" height="13" rx="3" fill="#161b22"><title>0 contributions</title></rect>
<rect x="537" y="10" width="13" height="13" rx="3" fill="#161b22"><title>0 contributions</title></rect>
<rect x="537" y="27" width="13" height="13" rx="3" fill="#161b22"><title>0 contributions</title></rect>
<rect x="537" y="44" width="13" height="13" rx="3" fill="#161b22"><title>0 contributions</title></rect>
<rect x="537" y="61" width="13" height="13" rx="3" fill="#161b22"><title>0 contributions</title></rect>
<rect x="537" y="78" width="13" height="13" rx="3" fill="#161b22"><title>0 contributions</title></rect>
<rect x="537" y="95" width="13" height="13" rx="3" fill="#161b22"><title>0 contributions</title></rect>
<rect x="537" y="112" width="13" height="13" rx="3" fill="#161b22"><title>0 contributions</title></rect>
<rect x="554" y="10" width="13" height="13" rx="3" fill="#161b22"><title>0 contributions</title></rect>
<rect x="554" y="27" width="13" height="13" rx="3" fill="#161b22"><title>0 contributions</title></rect>
<rect x="554" y="44" width="13" height="13" rx="3" fill="#161b22"><title>0 contributions</title></rect>
<rect x="554" y="61" width="13" height="13" rx="3" fill="#161b22"><title>0 contributions</title></rect>
<rect x="554" y="78" width="13" height="13" rx="3" fill="#161b22"><title>0 contributions</title></rect>
<rect x="554" y="95" width="13" height="13" rx="3" fill="#161b22"><title>0 contributions</title></rect>
<rect x="554" y="112" width="13" height="13" rx="3" fill="#161b22"><title>0 contributions</title></rect>
<rect x="571" y="10" width="13" height="13" rx="3" fill="#161b22"><title>0 contributions</title></rect>
<rect x="571" y="27" width="13" height="13" rx="3" fill="#161b22"><title>0 contributions</title></rect>
<rect x="571" y="44" width="13" height="13" rx="3" fill="#161b22"><title>0 contributions</title></rect>
<rect x="571" y="61" width="13" height="13" rx="3" fill="#161b22"><title>0 contributions</title></rect>
<rect x="571" y="78" width="13" height="13" rx="3" fill="#161b22"><title>0 contributions</title></rect>
<rect x="571" y="95" width="13" height="13" rx="3" fill="#161b22"><title>0 contributions</title></rect>
<rect x="571" y="112" width="13" height="13" rx="3" fill="#161b22"><title>0 contributions</title></rect>
<rect x="588" y="10" width="13" height="13" rx="3" fill="#161b22"><title>0 contributions</title></rect>
<rect x="588" y="27" width="13" height="13" rx="3" fill="#161b22"><title>0 contributions</title></rect>
<rect x="588" y="44" width="13" height="13" rx="3" fill="#161b22"><title>0 contributions</title></rect>
<rect x="588" y="61" width="13" height="13" rx="3" fill="#161b22"><title>0 contributions</title></rect>
<rect x="588" y="78" width="13" height="13" rx="3" fill="#161b22"><title>0 contributions</title></rect>
<rect x="588" y="95" width="13" height="13" rx="3" fill="#161b22"><title>0 contributions</title></rect>
<rect x="588" y="112" width="13" height="13" rx="3" fill="#161b22"><title>0 contributions</title></rect>
<rect x="605" y="10" width="13" height="13" rx="3" fill="#161b22"><title>0 contributions</title></rect>
<rect x="605" y="27" width="13" height="13" rx="3" fill="#161b22"><title>0 contributions</title></rect>
<rect x="605" y="44" width="13" height="13" rx="3" fill="#161b22"><title>0 contributions</title></rect>
<rect x="605" y="61" width="13" height="13" rx="3" fill="#161b22"><title>0 contributions</title></rect>
<rect x="605" y="78" width="13" height="13" rx="3" fill="#161b22"><title>0 contributions</title></rect>
<rect x="605" y="95" width="13" height="13" rx="3" fill="#161b22"><title>0 contributions</title></rect>
<rect x="605" y="112" width="13" height="13" rx="3" fill="#161b22"><title>0 contributions</title></rect>
<rect x="622" y="10" width="13" height="13" rx="3" fill="#161b22"><title>0 contributions</title></rect>
<rect x="622" y="27" width="13" height="13" rx="3" fill="#161b22"><title>0 contributions</title></rect>
<rect x="622" y="44" width="13" height="13" rx="3" fill="#161b22"><title>0 contributions</title></rect>
<rect x="622" y="61" width="13" height="13" rx="3" fill="#161b22"><title>0 contributions</title></rect>
<rect x="622" y="78" width="13" height="13" rx="3" fill="#161b22"><title>0 contributions</title></rect>
<rect x="622" y="95" width="13" height="13" rx="3" fill="#161b22"><title>0 contributions</title></rect>
<rect x="622" y="112" width="13" height="13" rx="3" fill="#161b22"><title>0 contributions</title></rect>
<rect x="639" y="10" width="13" height="13" rx="3" fill="#161b22"><title>0 contributions</title></rect>
<rect x="639" y="27" width="13" height="13" rx="3" fill="#006d32"><title>2 contributions</title></rect>
<rect x="639" y="44" width="13" height="13" rx="3" fill="#161b22"><title>0 contributions</title></rect>
<rect x="639" y="61" width="13" height="13" rx="3" fill="#161b22"><title>0 contributions</title></rect>
<rect x="639" y="78" width="13" height="13" rx="3" fill="#161b22"><title>0 contributions</title></rect>
<rect x="639" y="95" width="13" height="13" rx="3" fill="#161b22"><title>0 contributions</title></rect>
<rect x="639" y="112" width="13" height="13" rx="3" fill="#161b22"><title>0 contributions</title></rect>
<rect x="656" y="10" width="13" height="13" rx="3" fill="#161b22"><title>0 contributions</title></rect>
<rect x="656" y="27" width="13" height="13" rx="3" fill="#161b22"><title>0 contributions</title></rect>
<rect x="656" y="44" width="13" height="13" rx="3" fill="#161b22"><title>0 contributions</title></rect>
<rect x="656" y="61" width="13" height="13" rx="3" fill="#161b22"><title>0 contributions</title></rect>
<rect x="656" y="78" width="13" height="13" rx="3" fill="#161b22"><title>0 contributions</title></rect>
<rect x="656" y="95" width="13" height="13" rx="3" fill="#161b22"><title>0 contributions</title></rect>
<rect x="656" y="112" width="13" height="13" rx="3" fill="#161b22"><title>0 contributions</title></rect>
<rect x="673" y="10" width="13" height="13" rx="3" fill="#161b22"><title>0 contributions</title></rect>
<rect x="673" y="27" width="13" height="13" rx="3" fill="#161b22"><title>0 contributions</title></rect>
<rect x="673" y="44" width="13" height="13" rx="3" fill="#161b22"><title>0 contributions</title></rect>
<rect x="673" y="61" width="13" height="13" rx="3" fill="#161b22"><title>0 contributions</title></rect>
<rect x="673" y="78" width="13" height="13" rx="3" fill="#161b22"><title>0 contributions</title></rect>
<rect x="673" y="95" width="13" height="13" rx="3" fill="#161b22"><title>0 contributions</title></rect>
<rect x="673" y="112" width="13" height="13" rx="3" fill="#161b22"><title>0 contributions</title></rect>
<rect x="690" y="10" width="13" height="13" rx="3" fill="#161b22"><title>0 contributions</title></rect>
<rect x="690" y="27" width="13" height="13" rx="3" fill="#161b22"><title>0 contributions</title></rect>
<rect x="690" y="44" width="13" height="13" rx="3" fill="#161b22"><title>0 contributions</title></rect>
<rect x="690" y="61" width="13" height="13" rx="3" fill="#161b22"><title>0 contributions</title></rect>
<rect x="690" y="78" width="13" height="13" rx="3" fill="#161b22"><title>0 contributions</title></rect>
<rect x="690" y="95" width="13" height="13" rx="3" fill="#161b22"><title>0 contributions</title></rect>
<rect x="690" y="112" width="13" height="13" rx="3" fill="#161b22"><title>0 contributions</title></rect>
<rect x="707" y="10" width="13" height="13" rx="3" fill="#161b22"><title>0 contributions</title></rect>
<rect x="707" y="27" width="13" height="13" rx="3" fill="#161b22"><title>0 contributions</title></rect>
<rect x="707" y="44" width="13" height="13" rx="3" fill="#161b22"><title>0 contributions</title></rect>
<rect x="707" y="61" width="13" height="13" rx="3" fill="#161b22"><title>0 contributions</title></rect>
<rect x="707" y="78" width="13" height="13" rx="3" fill="#161b22"><title>0 contributions</title></rect>
<rect x="707" y="95" width="13" height="13" rx="3" fill="#161b22"><title>0 contributions</title></rect>
<rect x="707" y="112" width="13" height="13" rx="3" fill="#161b22"><title>0 contributions</title></rect>
<rect x="724" y="10" width="13" height="13" rx="3" fill="#161b22"><title>0 contributions</title></rect>
<rect x="724" y="27" width="13" height="13" rx="3" fill="#161b22"><title>0 contributions</title></rect>
<rect x="724" y="44" width="13" height="13" rx="3" fill="#161b22"><title>0 contributions</title></rect>
<rect x="724" y="61" width="13" height="13" rx="3" fill="#161b22"><title>0 contributions</title></rect>
<rect x="724" y="78" width="13" height="13" rx="3" fill="#161b22"><title>0 contributions</title></rect>
<rect x="724" y="95" width="13" height="13" rx="3" fill="#161b22"><title>0 contributions</title></rect>
<rect x="724" y="112" width="13" height="13" rx="3" fill="#161b22"><title>0 contributions</title></rect>
<rect x="741" y="10" width="13" height="13" rx="3" fill="#161b22"><title>0 contributions</title></rect>
<rect x="741" y="27" width="13" height="13" rx="3" fill="#161b22"><title>0 contributions</title></rect>
<rect x="741" y="44" width="13" height="13" rx="3" fill="#161b22"><title>0 contributions</title></rect>
<rect x="741" y="61" width="13" height="13" rx="3" fill="#161b22"><title>0 contributions</title></rect>
<rect x="741" y="78" width="13" height="13" rx="3" fill="#161b22"><title>0 contributions</title></rect>
<rect x="741" y="95" width="13" height="13" rx="3" fill="#161b22"><title>0 contributions</title></rect>
<rect x="741" y="112" width="13" height="13" rx="3" fill="#161b22"><title>0 contributions</title></rect>
<rect x="758" y="10" width="13" height="13" rx="3" fill="#161b22"><title>0 contributions</title></rect>
<rect x="758" y="27" width="13" height="13" rx="3" fill="#161b22"><title>0 contributions</title></rect>
<rect x="758" y="44" width="13" height="13" rx="3" fill="#161b22"><title>0 contributions</title></rect>
<rect x="758" y="61" width="13" height="13" rx="3" fill="#161b22"><title>0 contributions</title></rect>
<rect x="758" y="78" width="13" height="13" rx="3" fill="#006d32"><title>2 contributions</title></rect>
<rect x="758" y="95" width="13" height="13" rx="3" fill="#161b22"><title>0 contributions</title></rect>
<rect x="758" y="112" width="13" height="13" rx="3" fill="#161b22"><title>0 contributions</title></rect>
<rect x="775" y="10" width="13" height="13" rx="3" fill="#161b22"><title>0 contributions</title></rect>
<rect x="775" y="27" width="13" height="13" rx="3" fill="#161b22"><title>0 contributions</title></rect>
<rect x="775" y="44" width="13" height="13" rx="3" fill="#161b22"><title>0 contributions</title></rect>
<rect x="775" y="61" width="13" height="13" rx="3" fill="#161b22"><title>0 contributions</title></rect>
<rect x="775" y="78" width="13" height="13" rx="3" fill="#161b22"><title>0 contributions</title></rect>
<rect x="775" y="95" width="13" height="13" rx="3" fill="#161b22"><title>0 contributions</title></rect>
<rect x="775" y="112" width="13" height="13" rx="3" fill="#161b22"><title>0 contributions</title></rect>
<rect x="792" y="10" width="13" height="13" rx="3" fill="#161b22"><title>0 contributions</title></rect>
<rect x="792" y="27" width="13" height="13" rx="3" fill="#161b22"><title>0 contributions</title></rect>
<rect x="792" y="44" width="13" height="13" rx="3" fill="#161b22"><title>0 contributions</title></rect>
<rect x="792" y="61" width="13" height="13" rx="3" fill="#161b22"><title>0 contributions</title></rect>
<rect x="792" y="78" width="13" height="13" rx="3" fill="#161b22"><title>0 contributions</title></rect>
<rect x="792" y="95" width="13" height="13" rx="3" fill="#161b22"><title>0 contributions</title></rect>
<rect x="792" y="112" width="13" height="13" rx="3" fill="#161b22"><title>0 contributions</title></rect>
<rect x="809" y="10" width="13" height="13" rx="3" fill="#161b22"><title>0 contributions</title></rect>
<rect x="809" y="27" width="13" height="13" rx="3" fill="#161b22"><title>0 contributions</title></rect>
<rect x="809" y="44" width="13" height="13" rx="3" fill="#161b22"><title>0 contributions</title></rect>
<rect x="809" y="61" width="13" height="13" rx="3" fill="#161b22"><title>0 contributions</title></rect>
<rect x="809" y="78" width="13" height="13" rx="3" fill="#161b22"><title>0 contributions</title></rect>
<rect x="809" y="95" width="13" height="13" rx="3" fill="#161b22"><title>0 contributions</title></rect>
<rect x="809" y="112" width="13" height="13" rx="3" fill="#161b22"><title>0 contributions</title></rect>
<rect x="826" y="10" width="13" height="13" rx="3" fill="#161b22"><title>0 contributions</title></rect>
<rect x="826" y="27" width="13" height="13" rx="3" fill="#161b22"><title>0 contributions</title></rect>
<rect x="826" y="44" width="13" height="13" rx="3" fill="#161b22"><title>0 contributions</title></rect>
<rect x="826" y="61" width="13" height="13" rx="3" fill="#161b22"><title>0 contributions</title></rect>
<rect x="826" y="78" width="13" height="13" rx="3" fill="#161b22"><title>0 contributions</title></rect>
<rect x="826" y="95" width="13" height="13" rx="3" fill="#161b22"><title>0 contributions</title></rect>
<rect x="826" y="112" width="13" height="13" rx="3" fill="#161b22"><title>0 contributions</title></rect>
<rect x="843" y="10" width="13" height="13" rx="3" fill="#161b22"><title>0 contributions</title></rect>
<rect x="843" y="27" width="13" height="13" rx="3" fill="#161b22"><title>0 contributions</title></rect>
<rect x="843" y="44" width="13" height="13" rx="3" fill="#161b22"><title>0 contributions</title></rect>
<rect x="843" y="61" width="13" height="13" rx="3" fill="#161b22"><title>0 contributions</title></rect>
<rect x="843" y="78" width="13" height="13" rx="3" fill="#161b22"><title>0 contributions</title></rect>
<rect x="843" y="95" width="13" height="13" rx="3" fill="#161b22"><title>0 contributions</title></rect>
<rect x="843" y="112" width="13" height="13" rx="3" fill="#161b22"><title>0 contributions</title></rect>
<rect x="860" y="10" width="13" height="13" rx="3" fill="#161b22"><title>0 contributions</title></rect>
<rect x="860" y="27" width="13" height="13" rx="3" fill="#161b22"><title>0 contributions</title></rect>
<rect x="860" y="44" width="13" height="13" rx="3" fill="#161b22"><title>0 contributions</title></rect>
<rect x="860" y="61" width="13" height="13" rx="3" fill="#161b22"><title>0 contributions</title></rect>
<rect x="860" y="78" width="13" height="13" rx="3" fill="#161b22"><title>0 contributions</title></rect>
<rect x="860" y="95" width="13" height="13" rx="3" fill="#161b22"><title>0 contributions</title></rect>
<rect x="860" y="112" width="13" height="13" rx="3" fill="#161b22"><title>0 contributions</title></rect>
<rect x="877" y="10" width="13" height="13" rx="3" fill="#161b22"><title>0 contributions</title></rect>
<rect x="877" y="27" width="13" height="13" rx="3" fill="#161b22"><title>0 contributions</title></rect>
<rect x="877" y="44" width="13" height="13" rx="3" fill="#161b22"><title>0 contributions</title></rect>
<rect x="877" y="61" width="13" height="13" rx="3" fill="#161b22"><title>0 contributions</title></rect>
<rect x="877" y="78" width="13" height="13" rx="3" fill="#161b22"><title>0 contributions</title></rect>
<rect x="877" y="95" width="13" height="13" rx="3" fill="#161b22"><title>0 contributions</title></rect>
<rect x="877" y="112" width="13" height="13" rx="3" fill="#161b22"><title>0 contributions</title></rect>
<rect x="894" y="10" width="13" height="13" rx="3" fill="#006d32"><title>2 contributions</title></rect>
</svg>